<svg width="24" height="17" viewBox="0 0 24 17" fill="none" xmlns="http://www.w3.org/2000/svg">
<g clip-path="url(#clip0_75_1229)">
<path d="M1.33333 16.5H22.6667C23.4 16.5 24 15.9 24 15.1667C24 14.4333 23.4 13.8333 22.6667 13.8333H1.33333C0.6 13.8333 0 14.4333 0 15.1667C0 15.9 0.6 16.5 1.33333 16.5ZM1.33333 9.83333H22.6667C23.4 9.83333 24 9.23333 24 8.5C24 7.76667 23.4 7.16667 22.6667 7.16667H1.33333C0.6 7.16667 0 7.76667 0 8.5C0 9.23333 0.6 9.83333 1.33333 9.83333ZM0 1.83333C0 2.56667 0.6 3.16667 1.33333 3.16667H22.6667C23.4 3.16667 24 2.56667 24 1.83333C24 1.1 23.4 0.5 22.6667 0.5H1.33333C0.6 0.5 0 1.1 0 1.83333Z" fill="#0E50E9"/>
</g>
<defs>
<clipPath id="clip0_75_1229">
<rect width="24" height="16" fill="white" transform="translate(0 0.5)"/>
</clipPath>
</defs>
</svg>
